# Blender 3.1.0
# www.blender.org
o Plane
v -1.000000 -0.707107 0.707107
v 1.000000 0.707107 -0.707107
v 1.000000 -0.707107 0.707107
v 1.000000 -0.707107 -0.707107
v -1.000000 0.707107 0.707107
v -1.000000 -0.707107 -0.707107
v -1.000000 0.707107 -0.707107
v 1.000000 0.707107 0.707107
vn -0.0000 -0.7071 -0.7071
vn -0.0000 -0.7071 0.7071
vt 0.500000 0.500000
vt 1.000000 0.000000
vt 1.000000 0.500000
vt 0.500000 0.000000
vt 0.000000 0.500000
vt 0.000000 0.000000
vt 0.500000 0.000000
vt 0.500000 0.500000
s 1
f 1/1/1 2/2/1 3/3/1
f 4/4/2 5/5/2 6/6/2
f 1/1/1 7/7/1 2/2/1
f 4/4/2 8/8/2 5/5/2
